<?xml version="1.0" encoding="utf-8"?>
<!-- Generator: Adobe Illustrator 18.0.0, SVG Export Plug-In . SVG Version: 6.00 Build 0)  -->
<!DOCTYPE svg PUBLIC "-//W3C//DTD SVG 1.1//EN" "http://www.w3.org/Graphics/SVG/1.1/DTD/svg11.dtd">
<svg version="1.1" id="Layer_1" xmlns="http://www.w3.org/2000/svg" xmlns:xlink="http://www.w3.org/1999/xlink" x="0px" y="0px"
	 viewBox="0 0 182 182" enable-background="new 0 0 182 182" xml:space="preserve">
<g>
	<g>
		<path fill="#5ACC5A" d="M83.7,29L83.7,29C60.1,29,41,48.1,41,71.7v78.5c0,2.5,3,3.8,4.8,2L69,129h29.3c23.6,0,42.7-19.1,42.7-42.7
			v0V29H83.7z"/>
		<polygon fill="#0EA84C" points="69,129 47.7,129 61,137 		"/>
		<polygon fill="#2CB757" points="141,29 83.7,29 83.7,86.3 		"/>
		<path fill="#0EA84C" d="M83.7,29L83.7,29C60.1,29,41,48.1,41,71.7V129l42.7-42.7V29z"/>
		<polygon fill="#75DD66" points="141,29 83.7,86.3 141,86.3 		"/>
		<path fill="#5ACC5A" d="M83.7,86.3L41,129h57.3c23.6,0,42.7-19.1,42.7-42.7v0H83.7z"/>
	</g>
</g>
</svg>
